{"title":"Dragon Age Dawn of the Seeker (2012)720p BDRip -DGrea8","uid":8024355,"size":1823534137,"categoryP":"video","categoryS":"hd___movies","magnet":"?xt=urn:btih:93aec1a19d02f4fda2f95ebe89148b5e46fa017a&amp;dn=Dragon+Age+Dawn+of+the+Seeker+%282012%29720p+BDRip+-DGrea8&amp;tr=udp%3A%2F%2Ftracker.openbittorrent.com%3A80&amp;tr=udp%3A%2F%2Fopen.demonii.com%3A1337&amp;tr=udp%3A%2F%2Ftracker.coppersurfer.tk%3A6969&amp;tr=udp%3A%2F%2Fexodus.desync.com%3A6969","seeders":3,"leechers":2,"uploader":"DGrea8","files":-1,"time":1358273485,"description":"     Dragon Age Dawn of the Seeker (2012)720p BDRip Eng(640kbps)-DGrea8\n\n\nSummary:-\n\n\nIn the land of Orlais, where battles are fought with swords and magic,\na young heroine rises as templars, mages, and dragons clash. Cassandra,\na brash and beautiful Seeker, must stop a conspiracy that threatens the realm's most powerful religious order, the Chantry of Andraste. Accused of treasonous crimes and hunted by friend and foe, Cassandra must clear her name and overcome her raging emotions in order to save the day and take her place in legend.\n\nCast:-\n\nBrina Palencia\t     ...\tGrand Cleric of Orlais\nColleen Clinkenbeard ...\tCassandra Pentaghast\nChristopher Sabat    ...\tKnight Commander\nJ. Michael Tatum     ...\tRegalyan D'Marcall\nLuci Christian\t     ...\tRevered Mother\nJohn Swasey\t     ...\tByron\nChuck Huber\t     ...\tFrenic\nMike McFarland\t     ...\tLazarro\nPam Dougherty\t     ...\tDivine\nR. Bruce Elliot\t     ...\tHigh Seeker\n\n\nVideo &amp; Audio Info.:-\n\nVideo\n\nDuration                         : 1h 29mn\nBit rate                         : 2 046 Kbps\nWidth                            : 1 280 pixels\nHeight                           : 720 pixels\nDisplay aspect ratio             : 16:9\nFrame rate                       : 23.976 fps\nColor space                      : YUV\nChroma subsampling               : 4:2:0\nBit depth                        : 8 bits\nScan type                        : Progressive\nBits/(Pixel*Frame)               : 0.093\nStream size                      : 1.24 GiB (74%)\n\nAudio\n\nFormat                           : AC-3\nFormat/Info                      : Audio Coding 3\nMode extension                   : CM (complete main)\nMuxing mode                      : Header stripping\nCodec ID                         : A_AC3\nDuration                         : 1h 29mn\nBit rate mode                    : Constant\nBit rate                         : 640 Kbps\nChannel(s)                       : 6 channels\nChannel positions                : Front: L C R, Side: L R, LFE\nSampling rate                    : 48.0 KHz\nBit depth                        : 16 bits\nCompression mode                 : Lossy\nStream size                      : 408 MiB (24%)\nTitle                            : 640 kbps\nLanguage                         : English\nSubtitle Language                : English\n\nScreen Shoots:-\n   \n &lt;a href=&quot;\nhttp://www.shotpix.com/images/25267130450185422955.jpg&quot; rel=&quot;nofollow&quot; target=&quot;_NEW&quot;&gt;\nhttp://www.shotpix.com/images/25267130450185422955.jpg&lt;/a&gt;\n &lt;a href=&quot;\nhttp://www.shotpix.com/images/76566018546696229701.jpg&quot; rel=&quot;nofollow&quot; target=&quot;_NEW&quot;&gt;\nhttp://www.shotpix.com/images/76566018546696229701.jpg&lt;/a&gt;\n &lt;a href=&quot;\nhttp://www.shotpix.com/images/10816046428220401845.jpg&quot; rel=&quot;nofollow&quot; target=&quot;_NEW&quot;&gt;\nhttp://www.shotpix.com/images/10816046428220401845.jpg&lt;/a&gt;\n &lt;a href=&quot;\nhttp://www.shotpix.com/images/01888137681792210903.jpg&quot; rel=&quot;nofollow&quot; target=&quot;_NEW&quot;&gt;\nhttp://www.shotpix.com/images/01888137681792210903.jpg&lt;/a&gt;\n &lt;a href=&quot;\nhttp://www.shotpix.com/images/84502599227781271039.jpg&quot; rel=&quot;nofollow&quot; target=&quot;_NEW&quot;&gt;\nhttp://www.shotpix.com/images/84502599227781271039.jpg&lt;/a&gt;\n &lt;a href=&quot;\nhttp://www.shotpix.com/images/42096029609286856449.jpg&quot; rel=&quot;nofollow&quot; target=&quot;_NEW&quot;&gt;\nhttp://www.shotpix.com/images/42096029609286856449.jpg&lt;/a&gt;\n\n\n\nNote:--\n\nEng. Audio Org. BluRay Check The Sample Video In This Torrent\t","torrent":{"xt":"urn:btih:93aec1a19d02f4fda2f95ebe89148b5e46fa017a","amp;dn":"Dragon+Age+Dawn+of+the+Seeker+%282012%29720p+BDRip+-DGrea8","amp;tr":["udp%3A%2F%2Ftracker.openbittorrent.com%3A80","udp%3A%2F%2Fopen.demonii.com%3A1337","udp%3A%2F%2Ftracker.coppersurfer.tk%3A6969","udp%3A%2F%2Fexodus.desync.com%3A6969"],"infoHash":"93aec1a19d02f4fda2f95ebe89148b5e46fa017a","infoHashBuffer":{"type":"Buffer","data":[147,174,193,161,157,2,244,253,162,249,94,190,137,20,139,94,70,250,1,122]},"announce":[],"urlList":[]}}